<svg xmlns="http://www.w3.org/2000/svg" xmlns:xlink="http://www.w3.org/1999/xlink" version="1.1" x="0px" y="0px" viewBox="0 0 100 125" style="enable-background:new 0 0 100 100;" xml:space="preserve"><path d="M90,73.1962585V22.8513489c0-0.0050049-0.0028076-0.0091553-0.0028687-0.0141602V16.374115  c0-2.2418213-1.8235474-4.0653687-4.0653687-4.0653687H14.0682373c-2.2418213,0-4.0653687,1.8235474-4.0653687,4.0653687v6.4630737  C10.0028076,22.8421936,10,22.846344,10,22.8513489v45.1538696c0,3.4003296,2.7658081,6.166626,6.1661377,6.166626h60.467041  l5.0741577,11.5748901c0.3468018,0.7960205,0.9841919,1.4076538,1.7949219,1.7225342  c0.3811035,0.1481934,0.7774658,0.2219849,1.1728516,0.2219849c0.4430542,0,0.8841553-0.0924072,1.2976685-0.2767334  l1.9064331-0.8308105c1.6339111-0.7121582,2.3828125-2.6257324,1.6672974-4.2678223l-3.5759888-8.144043h3.053894  C89.5636597,74.1718445,90,73.7350159,90,73.1962585z M88.0487671,72.2206116h-2.9334717l-1.8045044-4.1063232  c-0.3468018-0.7955322-0.9841919-1.4071655-1.7940063-1.7225342c-0.8070068-0.3139648-1.689209-0.2939453-2.470459,0.053833  l-0.0596313,0.026123l-1.5446167-3.5239868c6.9759521-3.6118774,10.0629883-12.0812988,6.8671875-19.3708496c0,0,0,0,0-0.0004883  c-3.329834-7.5905151-12.217041-11.0585327-19.8132935-7.7272339c-3.6775513,1.6120605-6.5062866,4.5598145-7.9667969,8.3012695  c-0.0596313,0.15271-0.1008301,0.3092041-0.1553345,0.4630127l-1.3174438-2.3856812  c1.0135498-0.7826538,1.6785278-1.9963379,1.6785278-3.3731689c0-2.3575439-1.9178467-4.2759399-4.2758789-4.2759399  s-4.2759399,1.918396-4.2759399,4.2759399c0,0.6859741,0.1774902,1.3255615,0.4656982,1.9006958l-5.1812744,3.8007202  c-0.7011108-0.5028687-1.5537109-0.8067017-2.4804688-0.8067017c-0.303772,0-0.5992432,0.0341797-0.8852539,0.0946655  l-3.2077637-8.1431274c1.0665283-0.7783203,1.7683105-2.0285034,1.7683105-3.4468384  c0-2.3580933-1.9179077-4.2764282-4.2759399-4.2764282s-4.2758789,1.918335-4.2758789,4.2764282  c0,0.769165,0.2202759,1.4815674,0.5773315,2.105896l-5.5602417,3.4239502  c-0.6477051-0.3953247-1.4003296-0.6356201-2.2131958-0.6356201c-2.3580322,0-4.2758789,1.918335-4.2758789,4.2758789  c0,2.3580933,1.9178467,4.2764282,4.2758789,4.2764282s4.2759399-1.918335,4.2759399-4.2764282  c0-0.8170776-0.2422485-1.5737915-0.6414185-2.2238159l5.4885864-3.3797607  c0.6749878,0.4459839,1.4810181,0.7093506,2.348877,0.7093506c0.2425537,0,0.4766846-0.0326538,0.708252-0.0716553  l3.2443237,8.236084c-0.9839478,0.7841187-1.6278687,1.9779663-1.6278687,3.3309326  c0,2.3575439,1.9179077,4.2758789,4.2759399,4.2758789s4.2758789-1.918335,4.2758789-4.2758789  c0-0.7219238-0.1967163-1.3922119-0.513916-1.9893188l5.1497192-3.7774658  c0.7158813,0.5400391,1.5963745,0.8724976,2.5603027,0.8724976c0.2814331,0,0.555542-0.0309448,0.8219604-0.0831299  l2.3363647,4.2304688c0.0167847,0.0304565,0.0411377,0.0533447,0.0606079,0.0812378  c-0.4297485,2.7894897-0.0749512,5.6470337,1.0855713,8.2938232c0.9165039,2.090332,2.2561035,3.8995972,3.9805298,5.3782349  c1.7044678,1.4610596,3.7642822,2.5424194,5.9603882,3.1283569c1.2471313,0.3272705,2.5276489,0.4891968,3.8081055,0.4891968  c1.7490845,0,3.489502-0.3209839,5.1416016-0.9194336l1.5452271,3.5252686l-0.0509644,0.0223389  c-1.6339722,0.7121582-2.3828125,2.6257324-1.6663208,4.2687378l0.2956543,0.6745605H16.1661377  c-2.3237305,0-4.2149048-1.8911743-4.2149048-4.2153931V23.8283997h76.0975342V72.2206116z M69.3549805,42.7398987  c-2.3580322,0-4.2758789,1.918335-4.2758789,4.2758789c0,0.6858521,0.1773682,1.3253174,0.4655151,1.9004517l-4.9569702,3.6362305  c-1.4641724-4.9414063,0.9356079-10.3175049,5.7781372-12.4406738c5.2546997-2.303833,11.3775635,0.0864868,13.6785889,5.3345337  c2.303833,5.2547607-0.0894165,11.3709717-5.3440552,13.6749268c-2.2340698,0.9794922-4.6287231,1.1074219-6.8103638,0.5351563  c-1.5082397-0.4026489-2.9158936-1.1328735-4.1147461-2.159729c-1.0078735-0.8643799-1.8479614-1.940918-2.4805908-3.1886597  c0.1481934-0.0236206,0.2943115-0.0701904,0.4241333-0.1652222l5.0757446-3.7233887  c0.7159424,0.5402222,1.5964355,0.8727417,2.5604858,0.8727417c2.3580322,0,4.2759399-1.918335,4.2759399-4.2763672  C73.6309204,44.6582336,71.7130127,42.7398987,69.3549805,42.7398987z"/></svg>