<svg xmlns="http://www.w3.org/2000/svg" xmlns:xlink="http://www.w3.org/1999/xlink" version="1.1" x="0px" y="0px" viewBox="0 0 100 125" enable-background="new 0 0 100 100" xml:space="preserve"><path d="M68.4,35.9l5.6-5.6c3.5,1.7,7.7,1.1,10.6-1.8c3.6-3.6,3.6-9.5,0-13.1c-3.6-3.6-9.5-3.6-13.1,0c-2.8,2.8-3.4,7.1-1.8,10.5  L64,31.5C65.7,32.8,67.1,34.2,68.4,35.9z M75.6,19.6c1.3-1.3,3.4-1.3,4.7,0c1.3,1.3,1.3,3.4,0,4.7c-1.3,1.3-3.4,1.3-4.7,0  C74.3,23,74.3,20.9,75.6,19.6z M50,26.8c1.1,0,2.1,0.1,3.1,0.2v-7.9c3.6-1.3,6.1-4.7,6.1-8.7c0-5.1-4.2-9.3-9.3-9.3  c-5.1,0-9.3,4.2-9.3,9.3c0,4.1,2.6,7.5,6.3,8.8V27C48,26.9,49,26.8,50,26.8z M46.6,10.4C46.6,8.5,48.1,7,50,7c1.9,0,3.4,1.5,3.4,3.4  c0,1.9-1.5,3.4-3.4,3.4C48.1,13.7,46.6,12.2,46.6,10.4z M80.9,53c1.3,3.6,4.7,6.3,8.8,6.3c5.1,0,9.3-4.2,9.3-9.3  c0-5.1-4.2-9.3-9.3-9.3c-4,0-7.4,2.6-8.7,6.1H73c0.1,1,0.2,2.1,0.2,3.1c0,1-0.1,2-0.2,3H80.9z M89.6,46.6c1.9,0,3.4,1.5,3.4,3.4  c0,1.9-1.5,3.4-3.4,3.4c-1.9,0-3.4-1.5-3.4-3.4C86.3,48.1,87.8,46.6,89.6,46.6z M36,31.5l-5.6-5.6c1.6-3.4,1-7.7-1.8-10.5  c-3.6-3.6-9.5-3.6-13.1,0c-3.6,3.6-3.6,9.5,0,13.1c2.9,2.9,7.2,3.5,10.6,1.8l5.6,5.6C32.9,34.2,34.3,32.8,36,31.5z M24.4,24.4  c-1.3,1.3-3.4,1.3-4.7,0c-1.3-1.3-1.3-3.4,0-4.7s3.4-1.3,4.7,0C25.7,20.9,25.7,23,24.4,24.4z M71.5,84.6c3.6,3.6,9.5,3.6,13.1,0  c3.6-3.6,3.6-9.5,0-13.1c-2.8-2.8-7.1-3.4-10.5-1.8L68.5,64c-1.3,1.6-2.7,3.1-4.4,4.4l5.6,5.6C68,77.4,68.6,81.7,71.5,84.6z   M75.6,75.6c1.3-1.3,3.4-1.3,4.7,0c1.3,1.3,1.3,3.4,0,4.7c-1.3,1.3-3.4,1.3-4.7,0C74.3,79.1,74.3,77,75.6,75.6z M10.4,59.3  c4.1,0,7.5-2.6,8.8-6.3H27c-0.1-1-0.2-2-0.2-3c0-1.1,0.1-2.1,0.2-3.1h-7.9c-1.3-3.6-4.7-6.1-8.7-6.1c-5.1,0-9.3,4.2-9.3,9.3  C1.1,55.1,5.2,59.3,10.4,59.3z M10.4,46.6c1.9,0,3.4,1.5,3.4,3.4s-1.5,3.4-3.4,3.4C8.5,53.4,7,51.9,7,50S8.5,46.6,10.4,46.6z   M53.1,80.9V73c-1,0.1-2.1,0.2-3.1,0.2c-1,0-2-0.1-3-0.2v7.8c-3.6,1.3-6.3,4.7-6.3,8.8c0,5.1,4.2,9.3,9.3,9.3c5.1,0,9.3-4.2,9.3-9.3  C59.3,85.6,56.7,82.2,53.1,80.9z M50,93c-1.9,0-3.4-1.5-3.4-3.4c0-1.9,1.5-3.4,3.4-3.4c1.9,0,3.4,1.5,3.4,3.4  C53.4,91.5,51.9,93,50,93z M31.5,64l-5.6,5.6c-3.4-1.6-7.7-1-10.5,1.8c-3.6,3.6-3.6,9.5,0,13.1c3.6,3.6,9.5,3.6,13.1,0  c2.9-2.9,3.5-7.2,1.8-10.6l5.6-5.6C34.2,67.1,32.8,65.7,31.5,64z M24.4,80.4c-1.3,1.3-3.4,1.3-4.7,0c-1.3-1.3-1.3-3.4,0-4.7  c1.3-1.3,3.4-1.3,4.7,0C25.7,77,25.7,79.1,24.4,80.4z M55.2,43.1l3.2,3.2l-7.4,7.3l-3.2,3.2l-3.2-3.2l-3.1-3.1l3.2-3.2l3.1,3.1  L55.2,43.1z M50,31.6c-10.2,0-18.4,8.3-18.4,18.4c0,10.2,8.3,18.4,18.4,18.4S68.4,60.2,68.4,50C68.4,39.8,60.2,31.6,50,31.6z   M50,62.8c-7.1,0-12.8-5.8-12.8-12.8c0-7.1,5.8-12.8,12.8-12.8S62.8,42.9,62.8,50C62.8,57.1,57.1,62.8,50,62.8z"/></svg>