<?xml version="1.0" encoding="utf-8"?>
<!-- Generator: Adobe Illustrator 22.1.0, SVG Export Plug-In . SVG Version: 6.00 Build 0)  -->
<svg version="1.1" id="logo" xmlns="http://www.w3.org/2000/svg" xmlns:xlink="http://www.w3.org/1999/xlink" x="0px" y="0px"
	 viewBox="0 0 419 118" style="enable-background:new 0 0 419 118;" xml:space="preserve">
<style type="text/css">
	.st0{fill:#ffffff;}
</style>
<g>
	<path class="st0" d="M211,10.6l-21.2,74.8h-14.7l-11.5-57.3l-11.7,57.3h-14.7l-21.3-74.8h15.9l12.6,52.7l11-52.7h16.3l10.8,52.7
		l11.3-46.8c1.3-3.8,3.8-5.8,7.7-5.8h9.5V10.6z"/>
	<path class="st0" d="M223.4,42.4h-14.6c1.8-10.8,9.3-16.1,22.8-16.1c16.1,0,24.2,5.3,24.5,16.1v19.8c0,16.1-9.7,23.2-25.4,24.3
		c-14,1.1-23.6-5.4-23.6-18.3c0.3-14,10.4-17.7,25.2-19.1c6.3-0.8,9.5-2.6,9.5-5.8c-0.3-3.3-3.4-4.9-9.5-4.9
		C227.1,38.4,224.2,39.7,223.4,42.4z M241.9,61.6v-5.4c-3.4,1.4-7.4,2.6-11.7,3.5c-5.8,1.1-8.8,3.8-8.8,8.1c0.3,4.6,2.7,6.8,7.4,6.8
		C237,74.6,241.9,69.8,241.9,61.6z"/>
	<path class="st0" d="M278.2,17.8v67.6h-14.6V10.6h7.6C275,10.6,278.2,13.9,278.2,17.8z"/>
	<path class="st0" d="M326.9,85.4c-4.8-0.3-7.3-2.6-7.3-7.3V48.2c-0.3-6-3.6-9-10.1-9s-9.8,3-9.9,9v37.2h-14.8V51.2
		c0-16.6,8.4-24.8,25-24.8s24.7,8.2,24.6,24.8v34.2H326.9z"/>
	<path class="st0" d="M390.3,62.2c0,10-2.5,16.6-7.7,19.8c-5.2,3-10.9,4.5-17.2,4.5c-6,0-11.4-1.6-16.5-4.9
		c-5.1-3.2-7.6-9.6-7.6-19.4v-35h14.6v37.9c0,6.5,3.3,9.7,9.9,9.7c6.6,0,9.9-3.2,9.9-9.7V34.5c-0.1-4.8,2.2-7.3,7-7.3h7.5
		L390.3,62.2L390.3,62.2z"/>
	<path class="st0" d="M411.1,37.7h-1.5v32.2c0,2.4,1.4,3.7,4.3,3.7h4.5v11.1c-4.7,0.4-9.9,0.4-15.4-0.1s-8.1-4-8-10.4V10.6h7.6
		c3.8,0,7,3.5,7,7.4v9.2h8.8v3.2C418.4,34.6,415.2,37.7,411.1,37.7z"/>
	<path class="st0" d="M191.1,93.6h0.3l11,22.8h-5.5l-1.4-3.2h-9l-1.4,3.2h-5.3L191.1,93.6z M193.9,109.4l-2.9-6.9l-2.9,6.9H193.9z"
		/>
	<path class="st0" d="M207.2,94.3h5.9c8.5,0,13.2,4.4,13.2,11.1c0,4.1-1.9,7.4-5.5,9.4c-2.3,1.3-4.8,1.7-7.8,1.7h-5.9L207.2,94.3
		L207.2,94.3z M213.6,111.7c4.8,0,7.4-2.5,7.4-6.3s-2.6-6.3-7.4-6.3h-1.2v12.7L213.6,111.7L213.6,111.7z"/>
	<path class="st0" d="M240.3,117.3l-10.4-23h5.6l5.2,12.1l5.3-12.1h5.2l-10.4,23H240.3z"/>
	<path class="st0" d="M256.1,94.3h5.3v22.1h-5.3V94.3z"/>
	<path class="st0" d="M274.9,112.5c1.9,0,3-0.9,3-2.2c0-1.5-1.4-2.2-3.7-3.5l-1.5-0.8c-2.9-1.7-4.3-3.7-4.3-6.3
		c0-3.5,2.8-6.1,7.2-6.1c1.7,0,3.5,0.4,5.6,1.1v5.2c-2.3-1.5-4.3-2.1-5.5-2.1c-1.5,0-2.4,0.7-2.4,1.8c0,0.8,0.5,1.4,1.5,2l2.6,1.4
		c3.2,1.8,5.5,3.4,5.5,6.9c0,4.2-3,7.2-8.1,7.2c-1.7,0-3.7-0.4-5.9-1.1l-0.4-5.9C270.9,111.6,272.8,112.5,274.9,112.5z"/>
	<path class="st0" d="M292,96.9c2.1-2.2,4.9-3.3,7.9-3.3s5.8,1.2,8,3.4c2.2,2.2,3.3,5.1,3.3,8.4c0,2.8-0.8,5.2-2.3,7.3
		c-2.2,2.9-5.5,4.5-9,4.5c-3,0-5.8-1.2-7.9-3.4c-2.2-2.3-3.3-5.1-3.3-8.4S289.8,99.2,292,96.9z M300,112.2c3.3,0,5.8-2.8,5.8-6.8
		s-2.6-6.8-5.8-6.8c-3.3,0-5.8,2.9-5.8,6.8C294.1,109.3,296.7,112.2,300,112.2z"/>
	<path class="st0" d="M318.1,94.3h5.7c2.8,0,5,0.2,6.9,1.6c1.7,1.2,2.6,3,2.6,4.9c0,2.8-1.4,4.9-4.1,6.1l6.8,9.5h-6l-5.9-8.7h-0.8
		v8.7h-5.2V94.3z M323.2,98.3v6.1h1.1c2.7,0,4.1-1.1,4.1-3.1c0-2.2-1.4-3-4.3-3H323.2z"/>
	<path class="st0" d="M346.4,112.5c1.9,0,3-0.9,3-2.2c0-1.5-1.4-2.2-3.7-3.5l-1.5-0.8c-2.9-1.7-4.3-3.7-4.3-6.3
		c0-3.5,2.8-6.1,7.2-6.1c1.7,0,3.5,0.4,5.6,1.1v5.2c-2.3-1.5-4.3-2.1-5.5-2.1c-1.5,0-2.4,0.7-2.4,1.8c0,0.8,0.5,1.4,1.5,2l2.6,1.4
		c3.2,1.8,5.5,3.4,5.5,6.9c0,4.2-3,7.2-8.1,7.2c-1.7,0-3.7-0.4-5.9-1.1l-0.4-5.9C342.4,111.6,344.2,112.5,346.4,112.5z"/>
	<rect x="115.4" y="101.2" class="st0" width="51" height="7.5"/>
	<rect x="366.9" y="101.2" class="st0" width="51" height="7.5"/>
	<path class="st0" d="M54.6,22.1c-1.3-4.3,0.2-19.1-10-21.6c-6.2-1.5-10.7,1.2-14,4.3c-1.7,1.6-2.8,3.2-4.2,4.4
		c-5.2,4.4-11.6,0-16.9,10.2c-1.8,3.4-1.1,3.5-1.8,7c-2,10.4-14,11.5,3.2,30.5C4.6,61.1-5.5,67.3,3.7,78.4c5.6,6.7,1.1,4,2.8,12.2
		c1,4.6,4.5,7.9,7.9,9.5c10.2,4.8,3.5,2,9,8.3c2.7,3.1,25.9,21.4,27.7-6.6l2.5,2.5c1.5,1.4,0,1.8,3,1.8c2.3,0,4.8-3.5,4.9-3.7
		c0.1-0.4,0.4-0.5,0.7-0.6c0.8,12.3,5,19.2,18,13.2c10.7-4.9,11.8-10.5,13.7-12.3c2.9-2.9,11.5-2.9,13-13c1.5-9.5-3-4,3.2-12
		c8.2-10.6-1.3-17-7.7-20.8c5.3-6.1,13.9-13.5,5.6-25.4c-3.3-4.8-1.4-0.2-2.6-7.1C102.7,9,92.1,14.6,86,8.2
		c-4.4-4.6-9.3-10.3-18.1-7.4C56.1,4.7,62.8,20,56.7,25.6C54.7,23.8,55.6,25.3,54.6,22.1L54.6,22.1z M65.5,92.7
		c-0.5,0-1,0.2-1.5,0.5c-0.9,0.6-1.8,1.9-2.4,2.8c-1.1,1.5-2.1,3-3.6,4.2l-1.2,0.9l-1.2-0.9c-1.5-1.2-2.6-2.6-3.7-4.1
		c-0.6-0.9-1.4-2.1-2.3-2.8c-0.5-0.4-1.1-0.5-1.7-0.6c-1.1,7.2,1.6,13.2-3.7,19.9l-0.6,0.7h-0.9c-6,0.1-11.2-2.3-15.3-6.5
		c-1.4-1.5-2.7-3.1-3.8-4.8c-0.4-0.6-0.8-1.2-1.1-1.8c-0.2-0.2-0.4-0.6-0.5-0.8c-0.4-0.4-0.8-0.6-1.3-0.9c-1.3-0.6-2.9-0.9-4.3-1.4
		c-2.2-0.8-3.8-2.1-5-4.1c-2.8-4.7-0.8-8.7-0.9-13.5c-1.8-1.4-3.9-2.8-5.1-4.6C3.8,72.5,4,69.7,4.6,67l0.1-0.3l0.2-0.3
		c1.2-1.9,3.1-3.3,5-4.4c1.3-0.8,5.3-2.9,5.8-4.3c0.4-1.3-2-3.6-2.8-4.3c-4-3.6-8.2-9.3-7-15c0.7-3.2,2.9-5.6,5.7-7.2
		c-0.1-4.2,0-9.9,2.9-13c2.9-3,8.2-3.3,12.3-3.4c2.5-2.7,4.2-6,7.1-8.2c3-2.4,6.5-2.9,10.3-2.4l0.5,0.1l0.4,0.3
		c1.5,1.2,2.6,2.6,3.5,4.3c1.1,2.2,1.7,4.7,2,7.2c0.3,2.4,0.4,4.8,0.8,7.2c0.2,1.5,0.6,3.4,1.6,4.6c0.8,0.9,1.9,1.2,3.1,1.4
		c1.4,0.1,3,0,4.1-1c1.3-1.2,1.9-3.4,2.3-5c0.6-2.7,0.9-5.5,1.3-8.3c0.4-2.5,1-5.5,2.3-7.9c1.4-2.4,2.2-2.8,4.8-3
		C74,3.9,77,4.5,79.7,6.5c3,2.3,4.9,5.6,7.4,8.4c4.1,0.1,9.4,0.4,12.3,3.4c3,3.1,3,8.7,2.8,13c2.9,1.5,5.3,3.7,5.8,7.1
		c0.6,3.7-1.3,7.6-3.3,10.6c-1.3,2-2.8,3.8-4.4,5.6c-0.6,0.7-1.2,1.3-1.7,2c-0.2,0.2-0.4,0.5-0.6,0.8c0,0.1,0.1,0.3,0.1,0.4
		c0.6,1.6,3.4,3.1,4.8,3.9c2.5,1.4,5.5,3.1,6.6,6c1.7,4.6-3,9.1-6.3,11.9c0,1.8,0.3,3.5,0.5,5.3c0.2,2,0.4,4.1-0.1,6
		c-1.1,3.8-4.6,5.7-8,6.9c-1.5,0.6-4.5,1.6-5.2,3.3c-0.5,1.3-0.7,2.2-1.5,3.4c-1.4,2.1-3.7,3.8-5.8,5.1c-3.4,2.2-8.1,4.8-12.2,3.5
		l-0.2-0.1l-0.1-0.1c-3.5-1.9-4.2-6.8-4.4-10.4C65.6,99.2,66,96,65.5,92.7z"/>
	<path class="st0" d="M70,62.5c-3.5,0-3.9,5,0.7,5c4.7,0,6.2-1.8,8.8-3.6c1.3,2.6,0.1,5.5-2.5,7c-3.3,1.9-1.8,1.9-1.8,6.3
		c0,2.8-6.8,5.3-7.5,0.2c-0.1-0.9,0.2-3.5-2.7-3.5c-3.4,0-2.8,6.1-0.1,8.9c0.6,0.6,1,0.8,1.3,1.6c-0.8,0.2-1.2,0.7-2.1,1
		c-1.8,0.6-5,1-5-1.9c0-6.5-0.4-44.1,0.3-47.5c0.7-3.4,7.4-0.4,8.7,0.5c2.9,1.9,2.2,3.9,3.9,4.8c0.7,0.4,8,0.8,8,9.6
		c0,5.5-3.1,11.5-8.9,11.8C70.4,62.7,70.9,62.5,70,62.5L70,62.5z M13.4,32.3c-9.1,4.4-6.7,12.9,0.7,19.6c9.7,8.8-3.8,9.4-7.6,15.4
		c-1.5,6.9,1.6,7.6,5.9,11.2c0.4,5.2-1.9,9.1,0.7,13.4c2.8,4.6,7.4,3.2,10.3,6c1.3,1.3,6.5,13.7,19.4,13.4
		c5.2-6.5,1.9-12.6,3.6-20.5c6.1-1,6.2,4.5,10.5,7.8c4-3.1,4.5-8.8,10.4-7.7c1,4.1,0.3,7.2,0.6,11.4c0.2,3.4,0.9,7.5,3.4,8.8
		c3.3,1.1,7.5-1.3,10.6-3.3c10.6-6.8,2.2-8.1,12.9-12c10.6-3.8,6.1-9.3,6.4-17.3c17.7-14.4-5.4-13.6-5.2-21.7
		c0-1.8,19.8-17.8,4.2-24.5c0.5-13.2-1.5-15.4-14-15.7C82,12.2,79.8,6.3,73,5.8c-4.7-0.3-5.3,1.3-6.5,5.7c-1.9,6.8-1.3,15-5.2,18.1
		c4.9,0,7.2,0.6,11.1,3.8c1.1,0.9,1.6,1.9,2.3,2.9c0.6,0.8,0.6,0.6,1.6,1c4.8,1.7,8.6,7.1,8.6,12.3c0,8.9-2.5,9.1-1.5,10.7
		c2.9,4.9,1.8,11.1-3.3,14.4c1.2,5.1-2.4,9.1-7,10.1c-2.4,0.5-1.3-0.1-2.5,1.6c-1.6,2.2-4.9,4-7.9,4c-5.3,0-4.8-1.4-5.9-1.4
		c-0.6,0-2,1.4-4.3,1.4c-2.8,0-5.5-0.3-7.6-2.1c-0.5-0.4-1.7-1.5-2-2c-1-1.6-0.3-1-2.4-1.4c-4.6-1-8.2-5-7-10.1
		c-2.1-1.4-4.8-4.3-4.8-7.8c0-7.6,2.5-5.6,1.5-8.1c-1.4-3.7-1.5-5.4-1.5-9.2c0-2.9,1.4-6.1,2.7-7.8c3.6-4.9,6.4-4,7.6-5.5
		c0.8-1,1.2-2,2.3-2.9c0.5-0.4,1-0.8,1.5-1.2c1.6-1.1,5.1-2.6,7.8-2.6c0.7,0,1.2,0,1.7,0c-5.7-4.2-0.8-17.6-8.5-23.7
		c-9.6-1.4-11.3,5.6-16.2,10.6C14.8,16.9,13.2,19.2,13.4,32.3L13.4,32.3z M33.4,51.1c0-8.8,6.4-9.2,7.8-9.8c2.2-1,1.9-6.8,11-6.8
		c2,0,2.1,1.8,2.1,4.3v44.7c0,3.5-4.7,2.4-6.6,1.2c-1.5-1-1.1-2.2-2.1-3.3c-1.9-2.1-7.9,0.9-7.4-5.6c0.2-2.2,1-3-1.5-4.5
		c-6.3-3.6-2.6-11.5,3.2-11.5c3.4,0,4.1,0.5,5.2,0.5c0.6,0,1.4-0.4,1.7-0.7c1.1-1.2,0.9-3.4-1.3-4c-2-0.6-5.3-0.8-7.7-0.4
		c-1.6,0.3-2.1,0.7-3.5,1.1C33.9,55.2,33.4,52.6,33.4,51.1L33.4,51.1z M77.8,52.8c0-1.1-1.1-2.2-3.1-2.1c-7.8,0-4.8-7.4-8.6-7.4
		c-2.2,0-3.1,2-2,4.7c1.5,3.9,4,7.2,8.7,7.5C75.1,55.6,77.8,55.6,77.8,52.8L77.8,52.8z M37.9,67c0-1.1,0.9-1.9,1.9-2.2
		c0.9-0.2,1.8,0.1,2.8,0.6c1.7,0.8,3.2,1.9,4.3,3.3c1.5,1.9,3.6,6.4,2.7,8.5s-4.1,2.9-4.7-1.2C43.6,68.5,37.9,70.8,37.9,67L37.9,67z
		 M40.3,48.3c0-1.4,1.2-2.2,2.4-2.3c5.6-0.6,3.4-2.4,5.3-4.2c1.5-1.5,5-0.5,3.8,3.1C49.7,50.9,40.3,52.7,40.3,48.3z"/>
</g>
</svg>
