<svg xmlns="http://www.w3.org/2000/svg" xmlns:xlink="http://www.w3.org/1999/xlink" version="1.1" x="0px" y="0px" viewBox="0 0 100 125" enable-background="new 0 0 100 100" xml:space="preserve"><path d="M94.004,36.967c-0.002-1.336-0.395-2.691-1.264-3.808l-6.973-8.922c-1.168-1.483-2.945-2.238-4.721-2.241  c-1.057,0-2.133,0.271-3.084,0.864l-6.799,4.23c-0.715,0.456-1.941,0.769-3.125,0.761c-0.92,0.004-1.809-0.18-2.396-0.47  l-6.658-3.225c-1.074-0.517-2.271-0.729-3.475-0.731c-1.729,0.008-3.48,0.433-4.887,1.408l-0.777,0.545  c-0.621-0.31-1.57-0.782-2.645-1.317c-1.289-0.632-2.805-0.887-4.336-0.892c-1.383,0.004-2.766,0.217-3.98,0.73l-4.535,1.935  c-0.738,0.32-1.912,0.529-3.078,0.524c-1.166,0.005-2.338-0.204-3.076-0.524l-4.539-1.936c-0.828-0.353-1.713-0.504-2.59-0.505  c-1.01,0.001-2.014,0.2-2.947,0.578c-0.932,0.38-1.797,0.941-2.486,1.711l-8.264,9.255C6.453,35.96,5.998,37.248,6,38.516  c-0.002,1.512,0.645,3.029,1.893,4.092l7.709,6.577L11.945,53c-1.008,1.052-1.51,2.416-1.51,3.765  c-0.002,1.435,0.568,2.884,1.697,3.951l0.742,0.705c0.699,0.663,1.539,1.085,2.418,1.31c-0.441,0.811-0.682,1.7-0.68,2.591  c-0.002,1.436,0.568,2.884,1.695,3.952l-0.002-0.001l0.744,0.708c1.059,1.004,2.432,1.504,3.785,1.503  c0.727,0.001,1.455-0.145,2.139-0.431c0.24,0.974,0.736,1.9,1.516,2.64l0.744,0.708c1.059,1.004,2.43,1.504,3.785,1.503  c1.059,0.001,2.123-0.311,3.039-0.917c0.268,0.862,0.727,1.679,1.426,2.343l0.744,0.708c1.057,1.004,2.43,1.504,3.783,1.503  c1.441,0.001,2.896-0.565,3.971-1.687l3.232-3.375l4.391,4.064c1.051,0.975,2.4,1.46,3.732,1.457  c1.463,0.003,2.939-0.583,4.016-1.736l0.701-0.751c0.605-0.65,1-1.419,1.229-2.222l1.701,1.57c1.053,0.971,2.4,1.454,3.73,1.453  c1.465,0.001,2.945-0.585,4.023-1.739l0.697-0.75c0.805-0.86,1.258-1.925,1.398-3.013c0.449,0.115,0.904,0.193,1.363,0.193  c1.465,0,2.941-0.585,4.02-1.738l0.699-0.75c0.977-1.047,1.463-2.39,1.461-3.714c0-0.411-0.059-0.82-0.15-1.224  c1.215-0.161,2.393-0.703,3.289-1.665l0.701-0.751c0.977-1.047,1.461-2.39,1.461-3.715c0.002-1.458-0.586-2.929-1.746-4.001  l-1.311-1.211l11.832-13.082C93.512,39.976,94.002,38.46,94.004,36.967z M14.197,58.562c-0.514-0.486-0.768-1.133-0.77-1.797  c0.002-0.623,0.225-1.231,0.684-1.71l7.49-7.816c0.488-0.509,1.139-0.764,1.807-0.765c0.625,0.001,1.236,0.226,1.719,0.681  l0.74,0.706c0,0,0.766,1.133,0.768,1.798c-0.002,0.498-0.152,0.983-0.443,1.403c-0.025,0.025-8.084,8.424-8.084,8.424  c-0.428,0.303-0.934,0.459-1.449,0.461c-0.627-0.002-1.24-0.226-1.719-0.68L14.197,58.562z M20.836,68.506  c-0.627-0.001-1.238-0.226-1.719-0.68l-0.744-0.707l-0.002-0.001c-0.51-0.484-0.766-1.133-0.766-1.797  c0-0.623,0.225-1.231,0.682-1.71c0,0,9.984-10.393,10.068-10.493c0.477-0.459,1.092-0.696,1.727-0.697  c0.627,0.001,1.238,0.225,1.719,0.68l0.744,0.708l0,0c0.512,0.484,0.766,1.132,0.768,1.797c-0.002,0.623-0.227,1.232-0.684,1.711  l-9.988,10.426C22.154,68.25,21.504,68.504,20.836,68.506z M29.02,72.926c-0.627-0.001-1.238-0.226-1.719-0.681l-0.746-0.707  c-0.512-0.485-0.768-1.133-0.768-1.797c0-0.556,0.189-1.095,0.551-1.544l6.953-7.257c0.469-0.423,1.057-0.646,1.666-0.646  c0.627,0.001,1.238,0.225,1.719,0.68l0.746,0.708l0,0c0.51,0.484,0.766,1.132,0.768,1.796c-0.002,0.624-0.229,1.233-0.684,1.711  l-6.682,6.973C30.338,72.67,29.688,72.924,29.02,72.926z M39.816,75.799c-0.486,0.508-1.137,0.762-1.805,0.764  c-0.627-0.001-1.238-0.226-1.719-0.681l-0.744-0.707c-0.51-0.484-0.766-1.133-0.768-1.797c0.002-0.624,0.227-1.233,0.684-1.71  l4.217-4.403c0.488-0.508,1.139-0.763,1.807-0.764c0.625,0.001,1.238,0.225,1.719,0.681l0.746,0.707l0,0  c0.51,0.484,0.764,1.132,0.766,1.796c-0.002,0.624-0.227,1.233-0.684,1.711L39.816,75.799z M80.023,61.138l-0.699,0.75  c-0.488,0.522-1.15,0.786-1.828,0.787c-0.615-0.001-1.217-0.217-1.695-0.659L64.021,51.122l-2.037,2.181l12.609,11.681  c0.525,0.486,0.789,1.146,0.793,1.82c-0.004,0.614-0.221,1.212-0.664,1.688l-0.697,0.75c-0.488,0.522-1.15,0.785-1.828,0.787  c-0.615-0.002-1.219-0.219-1.693-0.658L58.721,58.477l-2.035,2.181l10.457,9.67c0.504,0.483,0.762,1.126,0.762,1.786  c0,0.612-0.217,1.211-0.66,1.686l-0.699,0.75c-0.486,0.522-1.15,0.786-1.83,0.788c-0.617-0.002-1.219-0.219-1.695-0.658  l-10.436-9.635h-0.002l-0.002-0.002l-2.031,2.185l0.002,0.002l0,0l0.039,0.037l5.227,4.824c0.463,0.476,0.703,1.086,0.705,1.717  c-0.002,0.609-0.217,1.205-0.66,1.68l-0.699,0.751c-0.488,0.522-1.148,0.784-1.824,0.786c-0.615-0.002-1.217-0.218-1.693-0.659  l-4.551-4.214c0.396-0.777,0.617-1.62,0.617-2.466c0.002-1.435-0.568-2.882-1.695-3.951l-0.746-0.708  c-1.057-1.003-2.428-1.504-3.781-1.502c-0.105,0-0.211,0.024-0.314,0.03c0-0.025,0.006-0.051,0.006-0.076  c0.002-1.435-1.695-3.953-1.695-3.953l-0.744-0.706c-0.791-0.75-1.756-1.218-2.76-1.406c0.207-0.586,0.324-1.196,0.324-1.807  c0-1.435-0.568-2.883-1.695-3.951l-0.744-0.708c-1.059-1.004-2.43-1.505-3.783-1.504c-0.158,0-0.314,0.032-0.471,0.046  c-0.043-1.378-0.598-2.755-1.678-3.781v-0.001l-0.742-0.705c-1.059-1.005-2.43-1.506-3.783-1.505  c-1.443-0.001-2.896,0.565-3.971,1.687l-1.768,1.845l-7.832-6.68c-0.563-0.482-0.844-1.148-0.846-1.832  c0.002-0.573,0.197-1.134,0.613-1.6l8.264-9.255c0.328-0.368,0.813-0.701,1.381-0.932c0.568-0.231,1.213-0.358,1.816-0.357  c0.525,0,1.018,0.095,1.412,0.265l4.537,1.936c1.279,0.539,2.764,0.76,4.256,0.765c1.494-0.005,2.977-0.226,4.256-0.765l4.535-1.935  c0.699-0.305,1.754-0.494,2.803-0.49c1.16-0.007,2.322,0.233,2.996,0.577c0.428,0.213,0.834,0.415,1.211,0.604l-4.625,3.251  c-1.486,1.045-2.287,2.707-2.285,4.384c-0.002,1.11,0.35,2.24,1.066,3.199l-0.002-0.002l0.611,0.821  c1.16,1.542,2.969,2.335,4.777,2.339c1.021,0,2.061-0.258,2.988-0.814l2.766-1.661c0.564-0.345,1.416-0.563,2.297-0.559  c1.035-0.006,2.078,0.3,2.705,0.761l7.652,5.486c1.703,1.22,4.477,3.483,6.014,4.907l8.857,8.189  c0.525,0.487,0.789,1.144,0.791,1.819C80.686,60.063,80.467,60.662,80.023,61.138z M90.229,39.163L78.43,52.21l-5.357-4.952  c-1.678-1.549-4.445-3.808-6.301-5.141l-7.65-5.486c-1.297-0.919-2.885-1.316-4.455-1.322c-1.336,0.004-2.682,0.295-3.844,0.987  l-2.764,1.661c-0.424,0.255-0.924,0.385-1.443,0.386c-0.928,0.003-1.857-0.43-2.375-1.135l-0.609-0.82l-0.002-0.002  c-0.324-0.437-0.475-0.927-0.477-1.423c0.004-0.75,0.35-1.478,1.02-1.951l8.178-5.746c0.707-0.512,1.965-0.871,3.16-0.862  c0.83-0.004,1.623,0.163,2.166,0.431l6.658,3.225c1.135,0.545,2.416,0.768,3.705,0.771c1.656-0.008,3.33-0.368,4.709-1.215  l6.801-4.231c0.434-0.271,0.955-0.411,1.498-0.411c0.918-0.002,1.838,0.414,2.359,1.093l6.973,8.922  c0.402,0.511,0.635,1.232,0.635,1.979C91.016,37.804,90.721,38.626,90.229,39.163z"/></svg>